<svg width="1280" height="37" viewBox="0 0 1280 37" fill="none" xmlns="http://www.w3.org/2000/svg">
<g clip-path="url(#clip0_736_1396)">
<path d="M1166.75 0C1163.24 0 1159.81 1.03186 1156.89 2.96508C1153.97 4.89831 1151.69 7.64608 1150.35 10.8609C1149.01 14.0758 1148.66 17.6133 1149.34 21.0261C1150.03 24.439 1151.72 27.5739 1154.2 30.0344C1156.68 32.495 1159.84 34.1706 1163.29 34.8495C1166.73 35.5283 1170.3 35.1799 1173.54 33.8483C1176.78 32.5167 1179.55 30.2616 1181.5 27.3683C1183.45 24.4751 1184.49 21.0735 1184.49 17.5938C1184.49 12.9276 1182.62 8.45257 1179.3 5.1531C1175.97 1.85362 1171.45 0 1166.75 0ZM1174.89 25.3727C1174.82 25.497 1174.72 25.6052 1174.6 25.691C1174.48 25.7768 1174.35 25.8384 1174.2 25.8724C1174.06 25.9064 1173.91 25.912 1173.77 25.8888C1173.62 25.8657 1173.49 25.8144 1173.36 25.7377C1169.2 23.2103 1163.96 22.6486 1157.78 24.0387C1157.64 24.072 1157.5 24.0772 1157.35 24.0542C1157.21 24.0311 1157.07 23.9802 1156.95 23.9045C1156.83 23.8287 1156.72 23.7296 1156.64 23.6128C1156.56 23.4961 1156.5 23.364 1156.46 23.2243C1156.43 23.0842 1156.43 22.9388 1156.45 22.7966C1156.47 22.6543 1156.52 22.518 1156.6 22.3954C1156.68 22.2728 1156.78 22.1663 1156.89 22.0821C1157.01 21.9978 1157.14 21.9375 1157.29 21.9045C1164.04 20.3739 1169.85 21.0339 1174.52 23.8702C1174.77 24.0214 1174.95 24.2644 1175.02 24.546C1175.09 24.8276 1175.04 25.1249 1174.89 25.3727ZM1177.06 20.5846C1176.86 20.8864 1176.55 21.1013 1176.2 21.1849C1175.85 21.2685 1175.47 21.2145 1175.16 21.0339C1169.78 18.0557 1163.42 17.3184 1157.48 18.9839C1157.3 19.0859 1157.09 19.1457 1156.88 19.1588C1156.67 19.1719 1156.46 19.138 1156.26 19.0597C1156.07 18.9814 1155.89 18.8605 1155.75 18.706C1155.61 18.5515 1155.5 18.3673 1155.44 18.1668C1155.38 17.9664 1155.36 17.7548 1155.39 17.5476C1155.43 17.3404 1155.5 17.1428 1155.62 16.9694C1155.74 16.7959 1155.9 16.651 1156.08 16.5452C1156.26 16.4395 1156.47 16.3755 1156.68 16.3581C1159.99 15.413 1163.46 15.1336 1166.88 15.5363C1170.3 15.9389 1173.61 17.0156 1176.61 18.703C1176.91 18.8993 1177.13 19.2039 1177.21 19.5541C1177.3 19.9042 1177.24 20.2731 1177.06 20.5846ZM1177.24 15.5999C1171.58 12.23 1162.1 11.9211 1156.63 13.5639C1156.21 13.6905 1155.76 13.6463 1155.37 13.4409C1154.98 13.2355 1154.69 12.8858 1154.57 12.4687C1154.44 12.0516 1154.48 11.6013 1154.69 11.2168C1154.9 10.8324 1155.25 10.5453 1155.67 10.4187C1161.95 8.53712 1172.36 8.90219 1178.94 12.7636C1179.28 13.0038 1179.52 13.3616 1179.6 13.7657C1179.69 14.1699 1179.61 14.5908 1179.4 14.9448C1179.18 15.2987 1178.84 15.5598 1178.44 15.6759C1178.05 15.7921 1177.62 15.755 1177.24 15.5718V15.5999Z" fill="#1DD75F"/>
<path d="M1201.24 14.3664C1197.84 13.552 1197.23 12.9622 1197.23 11.8109C1197.23 10.6595 1198.29 9.92932 1199.88 9.92932C1201.58 9.99255 1203.21 10.6094 1204.52 11.6845C1204.55 11.698 1204.58 11.7051 1204.61 11.7051C1204.64 11.7051 1204.67 11.698 1204.69 11.6845C1204.75 11.6738 1204.8 11.644 1204.83 11.6002L1206.51 9.26938C1206.54 9.22733 1206.56 9.17541 1206.56 9.12194C1206.56 9.06848 1206.54 9.01656 1206.51 8.97451C1204.66 7.47908 1202.34 6.68269 1199.96 6.7279C1196.29 6.7279 1193.73 8.91834 1193.73 12.0355C1193.73 15.3914 1195.94 16.5849 1199.76 17.4976C1203.02 18.2418 1203.57 18.9017 1203.57 19.9829C1203.57 21.0641 1202.45 21.9768 1200.74 21.9768C1198.72 21.9629 1196.77 21.1671 1195.33 19.7582C1195.28 19.74 1195.22 19.74 1195.16 19.7582C1195.1 19.7722 1195.05 19.8012 1195 19.8425L1193.11 22.0189C1193.07 22.0606 1193.04 22.1159 1193.04 22.1733C1193.04 22.2308 1193.07 22.2861 1193.11 22.3278C1195.17 24.1587 1197.85 25.1602 1200.61 25.1361C1204.57 25.1361 1207.13 22.9877 1207.13 19.674C1207.07 16.9079 1205.37 15.3633 1201.24 14.3664Z" fill="#14142B"/>
<path d="M1216.02 11.0383C1215.21 11.0333 1214.4 11.2142 1213.66 11.5671C1212.92 11.9201 1212.28 12.4356 1211.77 13.0743V11.5298C1211.77 11.4726 1211.75 11.419 1211.7 11.3799C1211.66 11.3408 1211.61 11.319 1211.55 11.3191H1208.47C1208.42 11.319 1208.36 11.3408 1208.32 11.3799C1208.28 11.419 1208.25 11.4726 1208.25 11.5298V28.6602C1208.25 28.7197 1208.27 28.7769 1208.31 28.819C1208.36 28.8612 1208.41 28.8848 1208.47 28.8848H1211.52C1211.58 28.8848 1211.64 28.8612 1211.68 28.819C1211.72 28.7769 1211.75 28.7197 1211.75 28.6602V23.2823C1212.27 23.8942 1212.92 24.3841 1213.65 24.7167C1214.39 25.0493 1215.19 25.2164 1216 25.206C1219.18 25.206 1222.41 22.7769 1222.41 18.1151C1222.41 13.4534 1219.21 11.0383 1216.02 11.0383ZM1218.86 18.059C1218.91 18.5611 1218.86 19.0686 1218.7 19.5496C1218.55 20.0305 1218.29 20.4744 1217.96 20.8531C1217.62 21.2318 1217.21 21.5371 1216.75 21.7499C1216.28 21.9626 1215.78 22.078 1215.27 22.0888C1214.76 22.0732 1214.26 21.9552 1213.8 21.7419C1213.33 21.5286 1212.92 21.2245 1212.58 20.8479C1212.24 20.4713 1211.97 20.0301 1211.81 19.5507C1211.65 19.0714 1211.58 18.5639 1211.62 18.059C1211.58 17.5551 1211.65 17.0492 1211.81 16.5715C1211.98 16.0938 1212.24 15.6542 1212.58 15.2792C1212.92 14.9041 1213.34 14.6013 1213.8 14.3889C1214.26 14.1765 1214.76 14.0589 1215.27 14.0432C1215.79 14.0519 1216.3 14.167 1216.76 14.3812C1217.23 14.5953 1217.65 14.9037 1217.99 15.2868C1218.33 15.6699 1218.59 16.1193 1218.75 16.6062C1218.9 17.0932 1218.95 17.6071 1218.9 18.1151L1218.86 18.059Z" fill="#14142B"/>
<path d="M1230.71 11.0381C1229.3 11.0632 1227.92 11.5032 1226.76 12.3027C1225.59 13.1022 1224.69 14.2253 1224.17 15.5304C1223.65 16.8356 1223.54 18.2642 1223.83 19.6362C1224.13 21.0081 1224.83 22.262 1225.85 23.2395C1226.86 24.2171 1228.15 24.8745 1229.54 25.129C1230.93 25.3835 1232.37 25.2236 1233.67 24.6694C1234.97 24.1153 1236.08 23.1917 1236.85 22.0152C1237.62 20.8387 1238.02 19.462 1238.01 18.0588C1237.99 17.1227 1237.79 16.1983 1237.42 15.3386C1237.05 14.4788 1236.51 13.7006 1235.83 13.0485C1235.15 12.3964 1234.35 11.8831 1233.47 11.5382C1232.59 11.1932 1231.66 11.0233 1230.71 11.0381ZM1230.71 22.1729C1230.19 22.1661 1229.67 22.0545 1229.19 21.8447C1228.71 21.635 1228.28 21.3315 1227.93 20.9524C1227.57 20.5733 1227.29 20.1265 1227.11 19.6389C1226.94 19.1513 1226.86 18.6329 1226.89 18.1149C1226.85 17.6041 1226.93 17.092 1227.1 16.6102C1227.28 16.1283 1227.55 15.687 1227.9 15.3134C1228.25 14.9398 1228.68 14.6418 1229.15 14.4378C1229.63 14.2338 1230.14 14.1281 1230.65 14.1272C1231.18 14.1304 1231.7 14.2388 1232.18 14.4459C1232.66 14.6529 1233.1 14.9543 1233.46 15.3321C1233.82 15.7098 1234.1 16.156 1234.28 16.6439C1234.47 17.1318 1234.55 17.6512 1234.52 18.1711C1234.55 18.6862 1234.48 19.2025 1234.3 19.6879C1234.13 20.1733 1233.85 20.6175 1233.49 20.9928C1233.14 21.3682 1232.71 21.6666 1232.23 21.8696C1231.75 22.0726 1231.23 22.1759 1230.71 22.1729Z" fill="#14142B"/>
<path d="M1246.77 11.3192H1243.42V7.92119C1243.42 7.86397 1243.4 7.80885 1243.36 7.7671C1243.32 7.72535 1243.26 7.70011 1243.2 7.69653H1240.16C1240.1 7.69653 1240.04 7.7202 1240 7.76234C1239.96 7.80447 1239.93 7.86161 1239.93 7.92119V11.3192H1238.43C1238.4 11.3192 1238.38 11.3246 1238.35 11.3352C1238.32 11.3458 1238.3 11.3613 1238.28 11.3809C1238.26 11.4004 1238.25 11.4237 1238.24 11.4492C1238.22 11.4748 1238.22 11.5022 1238.22 11.5298V14.1275C1238.22 14.1847 1238.24 14.2398 1238.28 14.2816C1238.32 14.3233 1238.37 14.3485 1238.43 14.3521H1239.85V21.0639C1239.85 23.7738 1241.26 25.1499 1243.9 25.1499C1244.89 25.1777 1245.87 24.9348 1246.73 24.4478C1246.77 24.4315 1246.8 24.4056 1246.82 24.3732C1246.84 24.3408 1246.85 24.3033 1246.84 24.2653V21.794C1246.85 21.7558 1246.84 21.718 1246.82 21.6837C1246.8 21.6495 1246.78 21.6199 1246.75 21.5974C1246.71 21.5762 1246.67 21.565 1246.63 21.565C1246.59 21.565 1246.55 21.5762 1246.52 21.5974C1245.97 21.8752 1245.35 22.0195 1244.73 22.0187C1243.76 22.0187 1243.32 21.5834 1243.32 20.6145V14.3521H1246.67C1246.73 14.3521 1246.79 14.3284 1246.84 14.2863C1246.88 14.2442 1246.9 14.187 1246.9 14.1275V11.5298C1246.9 11.4862 1246.89 11.4431 1246.87 11.4057C1246.85 11.3683 1246.81 11.3382 1246.77 11.3192Z" fill="#14142B"/>
<path d="M1258.46 11.3335V10.9122C1258.46 9.67658 1258.93 9.12897 1259.99 9.12897C1260.58 9.13574 1261.16 9.24504 1261.72 9.45192C1261.75 9.46587 1261.78 9.47309 1261.82 9.47309C1261.85 9.47309 1261.88 9.46587 1261.91 9.45192C1261.94 9.43012 1261.96 9.40228 1261.98 9.3706C1261.99 9.33891 1262 9.30426 1262 9.26938V6.69982C1262 6.65062 1261.99 6.60198 1261.96 6.56138C1261.93 6.52079 1261.89 6.49049 1261.84 6.47516C1261.02 6.25951 1260.16 6.1649 1259.31 6.19433C1256.48 6.19433 1255.06 7.76696 1255.06 10.7297V11.3756H1253.64C1253.59 11.3756 1253.53 11.3978 1253.49 11.4373C1253.45 11.4768 1253.43 11.5303 1253.43 11.5862V14.1979C1253.43 14.2551 1253.45 14.3102 1253.49 14.352C1253.53 14.3937 1253.59 14.419 1253.64 14.4225H1255.06V24.785C1255.06 24.8409 1255.08 24.8945 1255.12 24.934C1255.16 24.9735 1255.22 24.9957 1255.27 24.9957H1258.26C1258.32 24.9958 1258.37 24.974 1258.42 24.9349C1258.46 24.8957 1258.48 24.8422 1258.49 24.785V14.3523H1261.32L1265.68 24.7008C1265.19 25.796 1264.69 26.0066 1264.02 26.0066C1263.44 25.9908 1262.86 25.8317 1262.35 25.5433C1262.32 25.5296 1262.29 25.5225 1262.26 25.5225C1262.23 25.5225 1262.2 25.5296 1262.17 25.5433C1262.14 25.5514 1262.12 25.5657 1262.09 25.5852C1262.07 25.6046 1262.05 25.6287 1262.04 25.6556L1261.09 27.8882C1261.07 27.9389 1261.07 27.9955 1261.09 28.0472C1261.11 28.0989 1261.14 28.1422 1261.19 28.169C1262.18 28.7319 1263.31 29.0182 1264.45 28.9974C1266.69 28.9974 1267.93 27.9584 1269.04 25.1641L1274.32 11.6283C1274.34 11.5959 1274.35 11.5597 1274.35 11.523C1274.35 11.4863 1274.34 11.4501 1274.32 11.4177C1274.3 11.3904 1274.27 11.3686 1274.24 11.354C1274.21 11.3394 1274.17 11.3324 1274.14 11.3335H1270.88C1270.84 11.3363 1270.79 11.3507 1270.76 11.3754C1270.72 11.4 1270.69 11.434 1270.67 11.4739L1267.42 20.6709L1263.93 11.4739C1263.91 11.432 1263.88 11.3962 1263.84 11.3712C1263.8 11.3461 1263.76 11.333 1263.71 11.3335H1258.46Z" fill="#14142B"/>
<path d="M1251.69 11.3192H1248.64C1248.52 11.3192 1248.42 11.4198 1248.42 11.5439V24.7146C1248.42 24.8387 1248.52 24.9393 1248.64 24.9393H1251.69C1251.81 24.9393 1251.92 24.8387 1251.92 24.7146V11.5439C1251.92 11.4198 1251.81 11.3192 1251.69 11.3192Z" fill="#14142B"/>
<path d="M1250.18 5.94865C1249.76 5.94596 1249.35 6.0673 1248.99 6.29728C1248.64 6.52726 1248.37 6.85553 1248.21 7.24047C1248.04 7.6254 1248 8.04967 1248.08 8.45946C1248.16 8.86926 1248.36 9.24613 1248.66 9.5423C1248.95 9.83847 1249.33 10.0406 1249.75 10.123C1250.16 10.2055 1250.59 10.1645 1250.98 10.0054C1251.37 9.84625 1251.7 9.57608 1251.93 9.22914C1252.17 8.8822 1252.29 8.47411 1252.29 8.05662C1252.29 7.78044 1252.24 7.50664 1252.14 7.25096C1252.03 6.99529 1251.87 6.7628 1251.68 6.56688C1251.48 6.37096 1251.25 6.21547 1250.99 6.10937C1250.73 6.00327 1250.46 5.94865 1250.18 5.94865Z" fill="#14142B"/>
<path d="M1276.86 15.5455C1276.58 15.5473 1276.3 15.4938 1276.04 15.3879C1275.78 15.282 1275.54 15.1259 1275.34 14.9286C1275.14 14.7314 1274.99 14.4969 1274.88 14.2388C1274.77 13.9807 1274.72 13.7042 1274.72 13.4252C1274.72 12.8592 1274.95 12.3163 1275.35 11.9161C1275.75 11.5158 1276.3 11.2909 1276.87 11.2909C1277.15 11.2891 1277.43 11.3426 1277.69 11.4485C1277.95 11.5544 1278.19 11.7105 1278.39 11.9078C1278.59 12.105 1278.75 12.3395 1278.85 12.5976C1278.96 12.8557 1279.01 13.1322 1279.01 13.4112C1279.01 13.9772 1278.78 14.5201 1278.38 14.9203C1277.98 15.3206 1277.43 15.5455 1276.86 15.5455ZM1276.86 11.5016C1276.47 11.4988 1276.1 11.6096 1275.78 11.8199C1275.45 12.0302 1275.2 12.3305 1275.05 12.6826C1274.91 13.0346 1274.87 13.4226 1274.94 13.797C1275.01 14.1715 1275.2 14.5155 1275.47 14.7854C1275.74 15.0553 1276.09 15.2388 1276.47 15.3125C1276.85 15.3863 1277.24 15.347 1277.59 15.1997C1277.95 15.0524 1278.25 14.8036 1278.46 14.4852C1278.68 14.1667 1278.79 13.7928 1278.78 13.4112C1278.79 13.1611 1278.74 12.9131 1278.64 12.6815C1278.55 12.4499 1278.41 12.2392 1278.23 12.0617C1278.05 11.8842 1277.84 11.7433 1277.61 11.6472C1277.37 11.551 1277.12 11.5016 1276.87 11.5016H1276.86ZM1277.34 13.6358L1277.93 14.4783H1277.42L1276.89 13.706H1276.42V14.4783H1275.98V12.2457H1276.99C1277.51 12.2457 1277.86 12.5125 1277.86 12.9478C1277.87 13.1021 1277.82 13.2531 1277.73 13.3775C1277.63 13.5019 1277.5 13.5927 1277.35 13.6358H1277.34ZM1276.97 12.6249H1276.42V13.3269H1276.97C1277.25 13.3269 1277.42 13.2006 1277.42 12.9759C1277.42 12.7512 1277.27 12.6249 1276.99 12.6249H1276.97Z" fill="#14142B"/>
</g>
<g clip-path="url(#clip1_736_1396)">
<path d="M876.027 11.5476V17.047V19.2451V24.7444H880.649V19.2451V17.047V11.5476H876.027Z" fill="#FAB908"/>
<path d="M862.163 19.1764C863.439 19.1764 864.473 18.1609 864.473 16.9082C864.473 15.6555 863.439 14.64 862.163 14.64C860.886 14.64 859.852 15.6555 859.852 16.9082C859.852 18.1609 860.886 19.1764 862.163 19.1764Z" fill="#0066D9"/>
<path d="M862.163 21.651C863.439 21.651 864.473 20.6355 864.473 19.3828C864.473 18.1301 863.439 17.1146 862.163 17.1146C860.886 17.1146 859.852 18.1301 859.852 19.3828C859.852 20.6355 860.886 21.651 862.163 21.651Z" fill="#0066D9"/>
<path d="M864.473 16.9086H859.852V19.383H864.473V16.9086Z" fill="#0066D9"/>
<path d="M894.513 21.651C895.79 21.651 896.824 20.6355 896.824 19.3828C896.824 18.1301 895.79 17.1146 894.513 17.1146C893.237 17.1146 892.203 18.1301 892.203 19.3828C892.203 20.6355 893.237 21.651 894.513 21.651Z" fill="#4285F4"/>
<path d="M894.513 19.1764C895.79 19.1764 896.824 18.1609 896.824 16.9082C896.824 15.6555 895.79 14.64 894.513 14.64C893.237 14.64 892.203 15.6555 892.203 16.9082C892.203 18.1609 893.237 19.1764 894.513 19.1764Z" fill="#4285F4"/>
<path d="M892.203 19.3832H896.824V16.9088H892.203V19.3832Z" fill="#4285F4"/>
<path d="M870.145 26.6C871.421 26.6 872.456 25.5845 872.456 24.3318C872.456 23.0791 871.421 22.0636 870.145 22.0636C868.869 22.0636 867.834 23.0791 867.834 24.3318C867.834 25.5845 868.869 26.6 870.145 26.6Z" fill="#EA4335"/>
<path d="M870.145 29.0746C871.421 29.0746 872.456 28.0591 872.456 26.8064C872.456 25.5537 871.421 24.5381 870.145 24.5381C868.869 24.5381 867.834 25.5537 867.834 26.8064C867.834 28.0591 868.869 29.0746 870.145 29.0746Z" fill="#EA4335"/>
<path d="M872.456 24.3322H867.834V26.8066H872.456V24.3322Z" fill="#EA4335"/>
<path d="M870.145 11.7534C871.421 11.7534 872.456 10.7379 872.456 9.48524C872.456 8.23255 871.421 7.21704 870.145 7.21704C868.869 7.21704 867.834 8.23255 867.834 9.48524C867.834 10.7379 868.869 11.7534 870.145 11.7534Z" fill="#EA4335"/>
<path d="M870.145 19.7949C871.421 19.7949 872.456 18.7794 872.456 17.5267C872.456 16.274 871.421 15.2585 870.145 15.2585C868.869 15.2585 867.834 16.274 867.834 17.5267C867.834 18.7794 868.869 19.7949 870.145 19.7949Z" fill="#EA4335"/>
<path d="M872.456 9.48499H867.834V17.5784H872.456V9.48499Z" fill="#EA4335"/>
<path d="M886.531 14.228C887.807 14.228 888.842 13.2125 888.842 11.9598C888.842 10.7071 887.807 9.69159 886.531 9.69159C885.255 9.69159 884.22 10.7071 884.22 11.9598C884.22 13.2125 885.255 14.228 886.531 14.228Z" fill="#34A853"/>
<path d="M886.531 11.7534C887.807 11.7534 888.842 10.7379 888.842 9.48524C888.842 8.23255 887.807 7.21704 886.531 7.21704C885.255 7.21704 884.22 8.23255 884.22 9.48524C884.22 10.7379 885.255 11.7534 886.531 11.7534Z" fill="#34A853"/>
<path d="M884.22 11.9595H888.842V9.48511H884.22V11.9595Z" fill="#34A853"/>
<path d="M878.338 7.01095C879.614 7.01095 880.649 5.99545 880.649 4.74275C880.649 3.49006 879.614 2.47455 878.338 2.47455C877.062 2.47455 876.027 3.49006 876.027 4.74275C876.027 5.99545 877.062 7.01095 878.338 7.01095Z" fill="#FAB908"/>
<path d="M878.338 4.5364C879.614 4.5364 880.649 3.52089 880.649 2.2682C880.649 1.01551 879.614 0 878.338 0C877.062 0 876.027 1.01551 876.027 2.2682C876.027 3.52089 877.062 4.5364 878.338 4.5364Z" fill="#FAB908"/>
<path d="M876.027 4.74254H880.649V2.26813H876.027V4.74254Z" fill="#FAB908"/>
<path d="M878.338 36.291C879.614 36.291 880.649 35.2755 880.649 34.0228C880.649 32.7701 879.614 31.7546 878.338 31.7546C877.062 31.7546 876.027 32.7701 876.027 34.0228C876.027 35.2755 877.062 36.291 878.338 36.291Z" fill="#FAB908"/>
<path d="M878.338 33.817C879.614 33.817 880.649 32.8015 880.649 31.5488C880.649 30.2961 879.614 29.2806 878.338 29.2806C877.062 29.2806 876.027 30.2961 876.027 31.5488C876.027 32.8015 877.062 33.817 878.338 33.817Z" fill="#FAB908"/>
<path d="M876.027 34.0231H880.649V31.5487H876.027V34.0231Z" fill="#FAB908"/>
<path d="M886.531 29.0746C887.807 29.0746 888.842 28.0591 888.842 26.8064C888.842 25.5537 887.807 24.5381 886.531 24.5381C885.255 24.5381 884.22 25.5537 884.22 26.8064C884.22 28.0591 885.255 29.0746 886.531 29.0746Z" fill="#34A853"/>
<path d="M886.531 21.0325C887.807 21.0325 888.842 20.017 888.842 18.7643C888.842 17.5116 887.807 16.4961 886.531 16.4961C885.255 16.4961 884.22 17.5116 884.22 18.7643C884.22 20.017 885.255 21.0325 886.531 21.0325Z" fill="#34A853"/>
<path d="M884.22 26.8062H888.842V18.7643H884.22V26.8062Z" fill="#34A853"/>
<path d="M878.338 13.8155C879.614 13.8155 880.649 12.7999 880.649 11.5473C880.649 10.2946 879.614 9.27905 878.338 9.27905C877.062 9.27905 876.027 10.2946 876.027 11.5473C876.027 12.7999 877.062 13.8155 878.338 13.8155Z" fill="#FAB908"/>
<path d="M878.338 27.0125C879.614 27.0125 880.649 25.997 880.649 24.7443C880.649 23.4916 879.614 22.4761 878.338 22.4761C877.062 22.4761 876.027 23.4916 876.027 24.7443C876.027 25.997 877.062 27.0125 878.338 27.0125Z" fill="#FAB908"/>
<path fill-rule="evenodd" clip-rule="evenodd" d="M984.072 23.9189H982.148V9.22058H987.251C988.52 9.22058 989.618 9.63457 990.545 10.4625C991.472 11.2905 991.936 12.334 991.936 13.5931C991.936 14.8522 991.472 15.8957 990.545 16.7237C989.618 17.5517 988.52 17.9657 987.251 17.9657H984.072V23.9189ZM984.072 16.1592H987.293C988.102 16.1592 988.75 15.8923 989.238 15.3586C989.726 14.8248 989.97 14.2363 989.97 13.5931C989.97 12.9499 989.726 12.3614 989.238 11.8277C988.75 11.2939 988.102 11.0271 987.293 11.0271H984.072V16.1592ZM993.531 15.0712C994.521 14.0447 995.783 13.5315 997.317 13.5315C998.851 13.5315 1000.11 14.0413 1001.1 15.0609C1002.09 16.0805 1002.59 17.3566 1002.59 18.8894C1002.59 20.4222 1002.09 21.6984 1001.1 22.718C1000.11 23.7376 998.851 24.2473 997.317 24.2473C995.783 24.2473 994.521 23.7376 993.531 22.718C992.542 21.6984 992.047 20.4222 992.047 18.8894C992.047 17.3566 992.542 16.0839 993.531 15.0712ZM994.953 21.5376C995.623 22.1945 996.411 22.523 997.317 22.523C998.223 22.523 999.007 22.1911 999.67 21.5273C1000.33 20.8636 1000.66 19.9843 1000.66 18.8894C1000.66 17.7946 1000.33 16.9153 999.67 16.2515C999.007 15.5878 998.223 15.2559 997.317 15.2559C996.411 15.2559 995.626 15.5878 994.963 16.2515C994.302 16.9153 993.971 17.7946 993.971 18.8894C993.971 19.9843 994.298 20.867 994.953 21.5376ZM1008.39 24.2473C1007.06 24.2473 1005.92 23.7341 1004.96 22.7077C1003.99 21.6813 1003.51 20.4085 1003.51 18.8894C1003.51 17.3703 1003.99 16.0976 1004.96 15.0712C1005.92 14.0447 1007.06 13.5315 1008.39 13.5315C1009.17 13.5315 1009.87 13.6958 1010.49 14.0242C1011.11 14.3527 1011.57 14.7632 1011.88 15.2559H1011.96L1011.88 13.86V9.22058H1013.8V23.9189H1011.96V22.523H1011.88C1011.57 23.0156 1011.11 23.4262 1010.49 23.7547C1009.87 24.0831 1009.17 24.2473 1008.39 24.2473ZM1008.7 22.523C1009.61 22.523 1010.38 22.1945 1011.01 21.5376C1011.64 20.8807 1011.96 19.998 1011.96 18.8894C1011.96 17.7809 1011.64 16.8982 1011.01 16.2413C1010.38 15.5844 1009.61 15.2559 1008.7 15.2559C1007.81 15.2559 1007.04 15.5878 1006.4 16.2515C1005.76 16.9153 1005.44 17.7946 1005.44 18.8894C1005.44 19.9843 1005.76 20.8636 1006.4 21.5273C1007.04 22.1911 1007.81 22.523 1008.7 22.523ZM1020.48 24.2473C1018.95 24.2473 1017.68 23.7376 1016.69 22.718C1015.7 21.6984 1015.21 20.4222 1015.21 18.8894C1015.21 17.3566 1015.7 16.0805 1016.69 15.0609C1017.68 14.0413 1018.95 13.5315 1020.48 13.5315C1021.62 13.5315 1022.57 13.8052 1023.32 14.3527C1024.08 14.9001 1024.63 15.5912 1024.98 16.426L1023.22 17.1445C1022.69 15.8854 1021.74 15.2559 1020.35 15.2559C1019.5 15.2559 1018.75 15.5981 1018.11 16.2823C1017.46 16.9666 1017.13 17.8356 1017.13 18.8894C1017.13 19.9432 1017.46 20.8123 1018.11 21.4965C1018.75 22.1808 1019.5 22.523 1020.35 22.523C1021.79 22.523 1022.78 21.8934 1023.32 20.6344L1025.04 21.3528C1024.69 22.174 1024.13 22.8617 1023.36 23.4159C1022.58 23.9702 1021.62 24.2473 1020.48 24.2473ZM1029.6 24.2473C1028.52 24.2473 1027.61 23.9394 1026.87 23.3236C1026.14 22.7077 1025.78 21.8934 1025.78 20.8807C1025.78 19.7858 1026.21 18.9271 1027.07 18.3044C1027.94 17.6817 1029 17.3703 1030.27 17.3703C1031.4 17.3703 1032.33 17.5756 1033.05 17.9862V17.6988C1033.05 16.9598 1032.8 16.3679 1032.28 15.9231C1031.77 15.4783 1031.13 15.2559 1030.38 15.2559C1029.82 15.2559 1029.31 15.3859 1028.86 15.646C1028.41 15.906 1028.1 16.2618 1027.93 16.7134L1026.17 15.9744C1026.41 15.3722 1026.88 14.8146 1027.58 14.3014C1028.27 13.7881 1029.19 13.5315 1030.34 13.5315C1031.65 13.5315 1032.73 13.9079 1033.6 14.6606C1034.46 15.4133 1034.9 16.4739 1034.9 17.8425V23.9189H1033.05V22.523H1032.97C1032.2 23.6726 1031.08 24.2473 1029.6 24.2473ZM1029.92 22.523C1030.71 22.523 1031.43 22.2321 1032.08 21.6505C1032.73 21.0689 1033.05 20.3812 1033.05 19.5874C1032.51 19.1495 1031.7 18.9305 1030.61 18.9305C1029.67 18.9305 1028.97 19.1289 1028.5 19.5258C1028.02 19.9227 1027.78 20.388 1027.78 20.9217C1027.78 21.4144 1028 21.8045 1028.43 22.0919C1028.87 22.3793 1029.36 22.523 1029.92 22.523ZM1040.53 24.2473C1039.38 24.2473 1038.44 23.9736 1037.69 23.4262C1036.95 22.8788 1036.4 22.1945 1036.05 21.3734L1037.77 20.6754C1038.31 21.9345 1039.24 22.564 1040.55 22.564C1041.15 22.564 1041.64 22.434 1042.02 22.174C1042.41 21.914 1042.6 21.5718 1042.6 21.1476C1042.6 20.4906 1042.13 20.0459 1041.2 19.8132L1039.13 19.3205C1038.47 19.1563 1037.85 18.845 1037.26 18.3865C1036.68 17.928 1036.39 17.3088 1036.39 16.5287C1036.39 15.6391 1036.79 14.9172 1037.59 14.3629C1038.39 13.8087 1039.34 13.5315 1040.44 13.5315C1041.35 13.5315 1042.16 13.7334 1042.87 14.1371C1043.58 14.5409 1044.09 15.1191 1044.4 15.8718L1042.72 16.5492C1042.35 15.6596 1041.57 15.2149 1040.38 15.2149C1039.81 15.2149 1039.33 15.3312 1038.94 15.5638C1038.55 15.7965 1038.35 16.1113 1038.35 16.5081C1038.35 17.0829 1038.81 17.473 1039.71 17.6783L1041.74 18.1504C1042.7 18.3694 1043.41 18.7457 1043.87 19.2795C1044.33 19.8132 1044.56 20.4154 1044.56 21.086C1044.56 21.9892 1044.19 22.7419 1043.43 23.3441C1042.68 23.9463 1041.71 24.2473 1040.53 24.2473ZM1050.32 24.0831C1049.25 24.0831 1048.43 23.8026 1047.86 23.2415C1047.3 22.6803 1047.02 21.8866 1047.02 20.8602V15.5844H1045.22V13.86H1047.02V10.7807H1048.94V13.86H1051.45V15.5844H1048.94V20.7165C1048.94 21.8113 1049.4 22.3587 1050.32 22.3587C1050.67 22.3587 1050.96 22.304 1051.2 22.1945L1051.87 23.8162C1051.45 23.9942 1050.93 24.0831 1050.32 24.0831ZM1057.06 24.2473C1055.92 24.2473 1054.97 23.9736 1054.23 23.4262C1053.48 22.8788 1052.93 22.1945 1052.59 21.3734L1054.3 20.6754C1054.84 21.9345 1055.77 22.564 1057.08 22.564C1057.68 22.564 1058.17 22.434 1058.56 22.174C1058.94 21.914 1059.13 21.5718 1059.13 21.1476C1059.13 20.4906 1058.66 20.0459 1057.73 19.8132L1055.66 19.3205C1055 19.1563 1054.38 18.845 1053.8 18.3865C1053.21 17.928 1052.92 17.3088 1052.92 16.5287C1052.92 15.6391 1053.32 14.9172 1054.12 14.3629C1054.92 13.8087 1055.88 13.5315 1056.98 13.5315C1057.88 13.5315 1058.69 13.7334 1059.4 14.1371C1060.11 14.5409 1060.62 15.1191 1060.93 15.8718L1059.26 16.5492C1058.88 15.6596 1058.1 15.2149 1056.91 15.2149C1056.34 15.2149 1055.86 15.3312 1055.47 15.5638C1055.08 15.7965 1054.89 16.1113 1054.89 16.5081C1054.89 17.0829 1055.34 17.473 1056.25 17.6783L1058.27 18.1504C1059.24 18.3694 1059.95 18.7457 1060.41 19.2795C1060.87 19.8132 1061.1 20.4154 1061.1 21.086C1061.1 21.9892 1060.72 22.7419 1059.97 23.3441C1059.21 23.9463 1058.25 24.2473 1057.06 24.2473Z" fill="#14142B"/>
<path d="M909.079 15.8208C909.079 11.1699 913.05 7.401 917.788 7.401C920.402 7.401 922.265 8.41138 923.67 9.72648L922.003 11.3463C921.007 10.4161 919.651 9.69441 917.788 9.69441C914.34 9.69441 911.645 12.4208 911.645 15.8048C911.645 19.1888 914.34 21.9152 917.788 21.9152C920.026 21.9152 921.301 21.0331 922.118 20.2312C922.788 19.5737 923.229 18.6275 923.392 17.3444H917.788V15.051H925.68C925.761 15.468 925.81 15.9491 925.81 16.4944C925.81 18.2265 925.337 20.3595 923.784 21.8671C922.265 23.4067 920.337 24.2246 917.788 24.2246C913.05 24.2246 909.079 20.4558 909.079 15.8208ZM932.101 13.4954C935.156 13.4954 937.64 15.7727 937.64 18.9161C937.64 22.0435 935.156 24.3369 932.101 24.3369C929.045 24.3369 926.562 22.0435 926.562 18.9161C926.562 15.7727 929.045 13.4954 932.101 13.4954ZM932.101 22.1878C933.767 22.1878 935.222 20.8407 935.222 18.9001C935.222 16.9435 933.767 15.6124 932.101 15.6124C930.418 15.6124 928.98 16.9435 928.98 18.9001C928.98 20.8407 930.434 22.1878 932.101 22.1878ZM944.192 13.4954C947.247 13.4954 949.73 15.7727 949.73 18.9161C949.73 22.0435 947.247 24.3369 944.192 24.3369C941.136 24.3369 938.653 22.0435 938.653 18.9161C938.653 15.7727 941.136 13.4954 944.192 13.4954ZM944.192 22.1878C945.858 22.1878 947.312 20.8407 947.312 18.9001C947.312 16.9435 945.874 15.6124 944.192 15.6124C942.509 15.6124 941.071 16.9435 941.071 18.9001C941.071 20.8407 942.525 22.1878 944.192 22.1878ZM959.027 13.6718H961.347V23.4067C961.347 27.4162 958.946 29.052 956.103 29.052C953.423 29.052 951.805 27.2879 951.201 25.8445L953.309 24.9784C953.684 25.8605 954.599 26.903 956.086 26.903C957.9 26.903 959.027 25.7964 959.027 23.7275V22.9416H958.946C958.406 23.5992 957.361 24.1765 956.037 24.1765C953.276 24.1765 950.743 21.8029 950.743 18.7718C950.743 15.7086 953.276 13.335 956.037 13.335C957.361 13.335 958.406 13.9123 958.946 14.5539H959.027V13.6718ZM956.25 22.0435C957.9 22.0435 959.207 20.6803 959.191 18.7718C959.191 16.8633 957.9 15.468 956.25 15.468C954.583 15.468 953.178 16.8633 953.178 18.7718C953.178 20.6643 954.583 22.0435 956.25 22.0435ZM962.998 23.968V8.04251H965.415V23.968H962.998ZM972.066 22.1878C973.307 22.1878 974.157 21.5944 974.794 20.6963L976.673 21.9312C976.052 22.8133 974.598 24.3369 972.066 24.3369C968.928 24.3369 966.592 21.9473 966.592 18.9161C966.592 15.6925 968.961 13.4954 971.804 13.4954C974.664 13.4954 976.068 15.7246 976.526 16.9435L976.771 17.5529L969.386 20.552C969.958 21.6265 970.824 22.1878 972.066 22.1878ZM971.886 15.5803C970.644 15.5803 968.928 16.6548 968.994 18.7397L973.928 16.735C973.667 16.0454 972.85 15.5803 971.886 15.5803Z" fill="#14142B"/>
</g>
<g clip-path="url(#clip2_736_1396)">
<path d="M644.861 17.6318C642.707 17.1146 642.11 16.8465 642.11 15.9845C642.11 15.1225 642.61 14.7585 644.034 14.7585C644.62 14.7621 645.199 14.8885 645.732 15.1294C646.266 15.3703 646.743 15.7204 647.131 16.1569L649.055 14.2413C648.434 13.5626 647.676 13.0223 646.831 12.6559C645.985 12.2895 645.071 12.1052 644.149 12.1151C641.456 12.1151 639.263 13.6283 639.263 16.0994C639.263 18.5704 641.014 19.5857 643.534 20.1795C646.054 20.7733 646.593 21.1564 646.593 22.0951C646.593 23.0337 645.823 23.57 644.207 23.57C643.543 23.5842 642.884 23.4505 642.278 23.1788C641.672 22.907 641.135 22.5041 640.706 21.9993L638.782 23.7616C639.416 24.5632 640.235 25.201 641.17 25.6211C642.104 26.0412 643.126 26.2313 644.149 26.1752C647.882 26.1752 649.517 24.432 649.517 21.8269C649.44 18.8769 647.035 18.1299 644.861 17.6318ZM657.462 12.1151C653.73 12.1151 651.518 14.9884 651.518 19.1451C651.518 23.3018 653.73 26.1752 657.462 26.1752C661.195 26.1752 663.388 23.3018 663.388 19.1451C663.388 14.9884 661.214 12.1151 657.462 12.1151ZM657.462 23.4742C655.269 23.4742 654.346 21.5587 654.346 19.1451C654.346 16.7315 655.269 14.816 657.462 14.816C659.655 14.816 660.598 16.7315 660.598 19.1451C660.598 21.5587 659.675 23.4742 657.462 23.4742ZM674.469 19.988C674.469 22.1717 673.392 23.5126 671.66 23.5126C669.929 23.5126 668.851 22.1334 668.851 19.9496V12.2875H666.12V19.9496C666.12 23.9148 668.351 26.1369 671.66 26.1369C674.969 26.1369 677.201 23.8574 677.201 19.9113V12.2491H674.469V19.988ZM689.013 18.0916V21.0798C688.84 20.7159 688.398 20.0454 688.07 19.5282L683.203 12.3258H680.702V25.9645H683.415V19.9688V16.9805C683.588 17.3253 684.03 18.0149 684.357 18.5321L689.398 25.9645H691.841V12.3258H689.013V18.0916ZM699.517 12.3258H695.246V25.9645H699.325C700.25 26.037 701.18 25.9116 702.052 25.5967C702.924 25.2818 703.719 24.7846 704.382 24.1387C705.045 23.4927 705.562 22.7129 705.898 21.8516C706.233 20.9903 706.38 20.0675 706.328 19.1451C706.328 14.1647 703.442 12.3258 699.517 12.3258ZM699.325 23.321H698.017V14.9692H699.46C702.365 14.9692 703.557 16.3676 703.557 19.1451C703.612 19.7103 703.539 20.2805 703.345 20.8144C703.151 21.3483 702.841 21.8326 702.436 22.2322C702.03 22.6319 701.541 22.9369 701.003 23.1252C700.465 23.3135 699.892 23.3804 699.325 23.321ZM714.793 14.816C715.314 14.7884 715.832 14.9157 716.281 15.1817C716.729 15.4477 717.089 15.8405 717.313 16.3101L719.852 15.1416C719.422 14.1902 718.711 13.3914 717.814 12.851C716.918 12.3105 715.877 12.0539 714.831 12.1151C711.272 12.1151 708.752 14.9884 708.752 19.1451C708.752 23.3018 711.156 26.1752 714.735 26.1752C715.796 26.2354 716.85 25.9726 717.757 25.4217C718.664 24.8708 719.382 24.0579 719.814 23.0911L717.505 21.7311C717.278 22.2532 716.902 22.697 716.422 23.0071C715.943 23.3171 715.383 23.4796 714.812 23.4742C712.773 23.4742 711.58 21.5587 711.58 19.1451C711.58 16.7315 712.753 14.816 714.793 14.816ZM724.95 12.3258H722.219V25.9645H730.453V23.2827H724.95V12.3258ZM737.667 12.1151C733.935 12.1151 731.722 14.9884 731.722 19.1451C731.722 23.3018 733.935 26.1752 737.667 26.1752C741.399 26.1752 743.611 23.3018 743.611 19.1451C743.611 14.9884 741.399 12.1151 737.667 12.1151ZM737.667 23.4742C735.454 23.4742 734.531 21.5587 734.531 19.1451C734.531 16.7315 735.454 14.816 737.667 14.816C739.879 14.816 740.783 16.7315 740.783 19.1451C740.783 21.5587 739.879 23.4742 737.667 23.4742ZM754.654 19.988C754.654 22.1717 753.596 23.5126 751.846 23.5126C750.095 23.5126 749.056 22.1334 749.056 19.9496V12.2875H746.305V19.9496C746.305 23.9148 748.537 26.1369 751.846 26.1369C755.154 26.1369 757.405 23.8574 757.405 19.9113V12.2491H754.654V19.988ZM765.101 12.3258H760.83V25.9645H764.908C765.833 26.037 766.763 25.9116 767.635 25.5967C768.508 25.2818 769.302 24.7846 769.965 24.1387C770.629 23.4927 771.146 22.7129 771.481 21.8516C771.817 20.9903 771.963 20.0675 771.911 19.1451C771.911 14.1647 769.025 12.3258 765.101 12.3258ZM764.908 23.321H763.562V14.9692H765.004C767.909 14.9692 769.102 16.3676 769.102 19.1451C769.156 19.7068 769.084 20.2733 768.892 20.8041C768.7 21.335 768.393 21.8171 767.993 22.216C767.592 22.615 767.108 22.9209 766.574 23.1119C766.041 23.3029 765.472 23.3743 764.908 23.321Z" fill="#14142B"/>
<path d="M634.224 19.1455C634.224 28.8507 626.252 36.6149 616.602 36.6149C606.952 36.6149 598.84 28.8507 598.84 19.1455C598.84 9.44023 606.812 1.67603 616.462 1.67603C626.113 1.67603 634.224 9.44023 634.224 19.1455Z" fill="url(#paint0_linear_736_1396)"/>
<path d="M604.06 20.3131C604.066 20.2554 604.108 20.2149 604.161 20.2149C604.212 20.2149 604.254 20.2553 604.262 20.3128L604.482 21.7071L604.262 23.0776C604.254 23.1351 604.212 23.1751 604.161 23.1751C604.108 23.1751 604.066 23.1349 604.06 23.0771L603.875 21.7071L604.06 20.3131Z" fill="white"/>
<path d="M605.097 19.352C605.15 19.352 605.194 19.3933 605.202 19.4532L605.485 21.7071L605.202 23.9116C605.194 23.9713 605.15 24.0129 605.097 24.0129C605.043 24.0129 604.999 23.9702 604.992 23.9111L604.743 21.7071L604.992 19.4532C604.999 19.3947 605.043 19.352 605.097 19.352Z" fill="white"/>
<path d="M608.933 17.5623C608.937 17.4571 609.022 17.3742 609.124 17.3742C609.225 17.3742 609.31 17.4571 609.316 17.5623L609.54 21.709L609.316 24.3891V24.3883C609.31 24.4932 609.225 24.5761 609.124 24.5761C609.022 24.5761 608.938 24.4935 608.933 24.3888L608.734 21.709L608.933 17.5623Z" fill="white"/>
<path d="M606.946 18.9604C606.952 18.8775 607.016 18.8155 607.094 18.8155C607.172 18.8155 607.236 18.8775 607.243 18.9598L607.496 21.7079L607.243 24.3661C607.236 24.4484 607.172 24.5105 607.094 24.5105C607.016 24.5105 606.952 24.4484 606.946 24.3661L606.722 21.7079L606.946 18.9604Z" fill="white"/>
<path d="M611.421 24.3451C611.416 24.4746 611.313 24.5758 611.187 24.5758C611.059 24.5758 610.956 24.4744 610.952 24.3459L610.78 21.7101L610.952 16.1899C610.956 16.0604 611.059 15.9589 611.187 15.9589C611.313 15.9589 611.416 16.0601 611.422 16.1896L611.616 21.7103L611.421 24.3451Z" fill="white"/>
<path d="M615.73 24.2711C615.727 24.446 615.583 24.5883 615.409 24.5883C615.235 24.5883 615.091 24.446 615.088 24.2727C615.088 24.2727 614.967 21.7139 614.967 21.7098L615.088 15.3362C615.091 15.1611 615.235 15.0189 615.409 15.0189C615.583 15.0189 615.727 15.1613 615.73 15.336L615.866 21.712L615.73 24.2711Z" fill="white"/>
<path d="M613.56 24.3038C613.556 24.4576 613.433 24.5783 613.282 24.5783C613.129 24.5783 613.007 24.4576 613.003 24.3054L612.856 21.7112L613.003 16.1502C613.006 15.9964 613.129 15.876 613.281 15.876C613.433 15.876 613.555 15.9964 613.559 16.1502L613.725 21.7109L613.56 24.3057V24.3038Z" fill="white"/>
<path d="M608.275 24.3883C608.268 24.4824 608.195 24.554 608.105 24.554C608.014 24.554 607.941 24.4824 607.935 24.388L607.725 21.7079L607.935 19.1593C607.941 19.0646 608.014 18.993 608.105 18.993C608.196 18.993 608.269 19.0641 608.275 19.1582L608.514 21.7079L608.275 24.3883Z" fill="white"/>
<path d="M606.218 24.2843C606.211 24.3556 606.157 24.4072 606.091 24.4072C606.024 24.4072 605.971 24.3553 605.965 24.2838L605.728 21.7074L605.965 19.0333C605.971 18.962 606.025 18.9102 606.091 18.9102C606.157 18.9102 606.211 18.9618 606.219 19.0333L606.487 21.7074L606.218 24.2843Z" fill="white"/>
<path d="M614.041 16.3538C614.045 16.1875 614.177 16.0577 614.341 16.0577C614.506 16.0577 614.637 16.1875 614.641 16.3532L614.791 21.7117L614.641 24.2897V24.2876C614.637 24.4538 614.506 24.5834 614.341 24.5834C614.176 24.5834 614.045 24.4536 614.041 24.2895L613.907 21.7114L614.041 16.3538Z" fill="white"/>
<path d="M610.365 24.3718C610.359 24.4892 610.265 24.5812 610.151 24.5812C610.037 24.5812 609.943 24.4892 609.938 24.3729L609.753 21.7098L609.938 16.6147C609.943 16.4973 610.037 16.4053 610.151 16.4053C610.265 16.4053 610.359 16.497 610.365 16.6147L610.574 21.7098L610.365 24.3718Z" fill="white"/>
<path d="M612.486 24.33V24.3296C612.481 24.4704 612.369 24.5809 612.23 24.5809C612.091 24.5809 611.978 24.47 611.974 24.3297L611.814 21.7103L611.974 16.004C611.978 15.862 612.09 15.7511 612.23 15.7511C612.369 15.7511 612.482 15.8623 612.486 16.004L612.666 21.7106L612.486 24.3286V24.3296C612.486 24.3294 612.486 24.3291 612.486 24.3289V24.33Z" fill="white"/>
<path d="M624.872 18.6608C625.243 18.5067 625.65 18.4211 626.077 18.4211C627.796 18.4211 629.19 19.8035 629.19 21.5085C629.19 23.2134 627.796 24.5955 626.076 24.5955C626.021 24.5955 617.453 24.5912 617.445 24.5904C617.259 24.5718 617.111 24.4144 617.109 24.2255V14.4283C617.111 14.2483 617.174 14.1554 617.409 14.0653C618.013 13.8335 618.698 13.6964 619.4 13.6964C622.271 13.6964 624.624 15.8787 624.872 18.6608Z" fill="white"/>
<path d="M616.129 14.7589C616.132 14.5719 616.285 14.4197 616.472 14.4197C616.659 14.4197 616.812 14.5719 616.815 14.7584L616.968 21.7128L616.815 24.2368V24.2339C616.812 24.4209 616.659 24.5729 616.472 24.5729C616.285 24.5729 616.132 24.4209 616.129 24.2366L615.989 21.7128L616.129 14.7589Z" fill="white"/>
</g>
<g clip-path="url(#clip3_736_1396)">
<path d="M361.375 32.1524C360.863 33.3519 360.053 34.4048 359.02 35.2137C358.264 35.7992 357.405 36.2405 356.485 36.5151C355.057 36.8552 353.589 37.0044 352.12 36.9588H335.936C334.472 37.0054 333.009 36.8562 331.586 36.5151C330.656 36.2453 329.785 35.8036 329.021 35.2137C328.018 34.4285 327.225 33.413 326.712 32.2559C326.158 30.5978 325.924 28.8523 326.022 27.1093V11.1077C325.942 9.39831 326.181 7.68901 326.727 6.06465C327.232 4.89844 328.02 3.87254 329.021 3.07728C329.781 2.48898 330.646 2.04742 331.571 1.77586C332.994 1.4348 334.457 1.28555 335.921 1.33219H352.165C353.634 1.28657 355.102 1.43579 356.53 1.77586C357.434 2.05546 358.278 2.49661 359.02 3.07728C360.023 3.86248 360.816 4.87798 361.33 6.03508C361.874 7.66973 362.108 9.38937 362.02 11.1077V27.1093C362.119 28.8151 361.9 30.5243 361.375 32.1524Z" fill="url(#paint1_linear_736_1396)"/>
<path d="M346.661 21.77C346.307 21.4485 345.89 21.2004 345.437 21.0403C344.983 20.8803 344.502 20.8116 344.021 20.8383C343.545 20.8156 343.07 20.8862 342.621 21.0462C342.173 21.2061 341.762 21.4521 341.411 21.77C341.132 22.0423 340.962 22.4045 340.931 22.7904C340.837 23.6852 340.837 24.5873 340.931 25.482C341.021 26.5764 341.201 28.0257 341.441 29.5046C341.536 30.1884 341.676 30.8653 341.861 31.5307C342.028 31.934 342.322 32.2731 342.701 32.4971C343.08 32.7211 343.522 32.8179 343.961 32.773C344.403 32.8188 344.847 32.7226 345.228 32.4987C345.609 32.2748 345.907 31.9352 346.076 31.5307C346.262 30.8653 346.402 30.1884 346.496 29.5046C346.721 28.0257 346.901 26.5468 346.991 25.482C347.086 24.5873 347.086 23.6852 346.991 22.7904C347.002 22.4232 346.886 22.0631 346.661 21.77ZM341.111 16.7566C341.111 17.3415 341.287 17.9134 341.617 18.3998C341.947 18.8862 342.415 19.2653 342.963 19.4892C343.511 19.7131 344.114 19.7716 344.696 19.6575C345.278 19.5434 345.813 19.2617 346.232 18.848C346.652 18.4344 346.938 17.9073 347.053 17.3336C347.169 16.7598 347.11 16.1651 346.883 15.6247C346.656 15.0842 346.271 14.6222 345.778 14.2972C345.284 13.9722 344.704 13.7988 344.111 13.7988C343.316 13.7988 342.553 14.1104 341.99 14.6651C341.427 15.2198 341.111 15.9721 341.111 16.7566ZM344.021 5.26553C341.031 5.27908 338.142 6.33312 335.864 8.24178C333.585 10.1504 332.063 12.7911 331.567 15.6981C331.07 18.6051 331.63 21.5916 333.149 24.1311C334.667 26.6706 337.046 28.5998 339.866 29.5786C339.895 29.586 339.925 29.5865 339.953 29.58C339.982 29.5735 340.008 29.5601 340.03 29.5412C340.053 29.5222 340.07 29.4982 340.08 29.4712C340.091 29.4442 340.095 29.4151 340.091 29.3863C340.016 28.9574 339.956 28.5286 339.896 28.1145C339.89 28.0399 339.863 27.9685 339.818 27.9084C339.773 27.8482 339.712 27.8018 339.641 27.7743C337.318 26.7574 335.42 24.9831 334.267 22.7495C333.114 20.5158 332.776 17.9589 333.31 15.5084C333.843 13.0579 335.216 10.863 337.197 9.29264C339.178 7.72223 341.647 6.87194 344.189 6.88464C346.731 6.89735 349.191 7.77226 351.156 9.36238C353.12 10.9525 354.47 13.161 354.978 15.6167C355.487 18.0724 355.122 20.6258 353.946 22.8478C352.77 25.0698 350.855 26.8251 348.521 27.8187C348.45 27.8462 348.389 27.8926 348.344 27.9527C348.299 28.0129 348.272 28.0843 348.266 28.1588C348.266 28.5729 348.146 29.0018 348.071 29.4307C348.068 29.4594 348.071 29.4886 348.082 29.5156C348.092 29.5426 348.11 29.5666 348.132 29.5855C348.154 29.6045 348.181 29.6178 348.209 29.6243C348.238 29.6309 348.268 29.6304 348.296 29.6229C351.159 28.6645 353.582 26.7294 355.126 24.1662C356.671 21.6029 357.236 18.5801 356.72 15.6422C356.205 12.7043 354.642 10.0446 352.314 8.14211C349.986 6.23963 347.045 5.21952 344.021 5.26553ZM343.796 11.0036C345.196 10.9494 346.579 11.3184 347.761 12.0613C348.942 12.8042 349.864 13.8854 350.404 15.1599C350.945 16.4344 351.077 17.8414 350.783 19.192C350.489 20.5427 349.784 21.7725 348.761 22.7165C348.707 22.7713 348.665 22.8361 348.636 22.9072C348.608 22.9783 348.594 23.0542 348.596 23.1306C348.628 23.623 348.628 24.117 348.596 24.6095C348.597 24.6401 348.606 24.67 348.622 24.6962C348.638 24.7224 348.661 24.744 348.688 24.7589C348.716 24.7738 348.746 24.7815 348.777 24.7812C348.809 24.7809 348.839 24.7727 348.866 24.7574C350.369 23.7487 351.505 22.2915 352.107 20.5996C352.708 18.9078 352.744 17.0703 352.209 15.3568C351.674 13.6434 350.596 12.1442 349.133 11.0793C347.67 10.0143 345.9 9.43969 344.081 9.43969C342.263 9.43969 340.492 10.0143 339.03 11.0793C337.567 12.1442 336.489 13.6434 335.953 15.3568C335.418 17.0703 335.454 18.9078 336.056 20.5996C336.657 22.2915 337.793 23.7487 339.296 24.7574C339.322 24.774 339.352 24.7832 339.383 24.7839C339.414 24.7847 339.444 24.7769 339.471 24.7615C339.497 24.7461 339.519 24.7238 339.533 24.6969C339.547 24.67 339.554 24.6397 339.551 24.6095C339.551 24.1067 339.551 23.6482 339.551 23.1306C339.559 23.0536 339.548 22.9759 339.52 22.9039C339.491 22.8319 339.445 22.7677 339.386 22.7165C338.401 21.796 337.713 20.6088 337.41 19.304C337.106 17.9992 337.201 16.6351 337.682 15.3833C338.163 14.1315 339.009 13.0478 340.113 12.2685C341.216 11.4893 342.529 11.0492 343.886 11.0036H343.796Z" fill="white"/>
<path d="M379.479 20.7222H373.914L372.519 24.6117H370.209L375.519 10.1925H377.979L383.259 24.6117H380.859L379.479 20.7222ZM374.484 18.9919H378.909L376.734 12.6623L374.484 18.9919Z" fill="#14142B"/>
<path d="M394.629 19.3627C394.629 22.631 392.859 24.7311 390.129 24.7311C389.449 24.7661 388.773 24.6112 388.179 24.2841C387.585 23.9571 387.096 23.4712 386.769 22.8825V28.103H384.594V14.0978H386.709V15.8429C387.056 15.2618 387.555 14.7835 388.155 14.4583C388.754 14.133 389.431 13.9727 390.114 13.9943C392.844 13.9943 394.629 16.0352 394.629 19.3627ZM392.379 19.3627C392.379 17.2331 391.269 15.8281 389.559 15.8281C387.849 15.8281 386.769 17.307 386.769 19.3627C386.769 21.4183 387.894 22.8972 389.559 22.8972C391.224 22.8972 392.379 21.5071 392.379 19.3627Z" fill="#14142B"/>
<path d="M406.373 19.363C406.373 22.6313 404.603 24.7314 401.873 24.7314C401.196 24.7635 400.523 24.6073 399.932 24.2804C399.34 23.9535 398.854 23.4692 398.528 22.8827V28.1032H396.323V14.0981H398.453V15.8432C398.799 15.261 399.298 14.7819 399.897 14.4564C400.497 14.131 401.174 13.9714 401.858 13.9946C404.588 13.9946 406.373 16.0355 406.373 19.363ZM404.123 19.363C404.123 17.2334 403.013 15.8284 401.303 15.8284C399.593 15.8284 398.513 17.3073 398.513 19.363C398.513 21.4186 399.638 22.8975 401.303 22.8975C402.968 22.8975 404.123 21.5074 404.123 19.363Z" fill="#14142B"/>
<path d="M408.142 10.1926H410.332V24.6119H408.142V10.1926Z" fill="#14142B"/>
<path d="M421.732 21.5211C421.493 22.5158 420.896 23.3913 420.052 23.9844C419.208 24.5774 418.173 24.8478 417.142 24.7451C414.037 24.7451 412.117 22.6894 412.117 19.4063C412.117 16.1231 414.052 13.9639 417.052 13.9639C420.052 13.9639 421.867 16.0344 421.867 19.1548V19.8943H414.367V20.0274C414.335 20.4138 414.386 20.8025 414.518 21.1678C414.65 21.5331 414.859 21.8666 415.131 22.1463C415.403 22.426 415.733 22.6454 416.097 22.79C416.462 22.9346 416.854 23.0012 417.247 22.9852C417.764 23.0344 418.283 22.9169 418.727 22.6502C419.171 22.3835 419.514 21.9821 419.707 21.5063L421.732 21.5211ZM414.337 18.3858H419.662C419.683 18.0384 419.63 17.6905 419.508 17.3641C419.385 17.0377 419.195 16.74 418.95 16.4898C418.704 16.2395 418.409 16.0422 418.082 15.9104C417.756 15.7785 417.405 15.715 417.052 15.7238C416.696 15.7199 416.342 15.7859 416.012 15.9181C415.682 16.0503 415.381 16.246 415.129 16.4938C414.876 16.7416 414.676 17.0365 414.54 17.3613C414.404 17.6862 414.335 18.0344 414.337 18.3858Z" fill="#14142B"/>
<path d="M433.521 10.1934C434.161 10.1618 434.799 10.2624 435.397 10.4889C435.994 10.7153 436.537 11.0625 436.991 11.5082C437.444 11.9539 437.798 12.4883 438.03 13.0768C438.262 13.6654 438.365 14.2953 438.335 14.9259C438.363 15.5637 438.256 16.2003 438.019 16.7947C437.783 17.389 437.423 17.9279 436.962 18.3765C436.501 18.8252 435.95 19.1737 435.345 19.3996C434.739 19.6254 434.092 19.7237 433.446 19.6879H430.311V24.6127H428.016V10.1934H433.521ZM430.311 17.8097H432.906C433.31 17.8634 433.72 17.8277 434.108 17.7054C434.496 17.583 434.852 17.377 435.149 17.1023C435.447 16.8276 435.678 16.4911 435.827 16.1172C435.976 15.7433 436.039 15.3414 436.011 14.9407C436.039 14.5419 435.976 14.1419 435.829 13.7698C435.68 13.3976 435.45 13.0628 435.154 12.7894C434.858 12.5161 434.504 12.3112 434.117 12.1896C433.731 12.068 433.323 12.0327 432.921 12.0864H430.311V17.8097Z" fill="#14142B"/>
<path d="M439.131 19.3619C439.131 16.0492 441.11 13.9639 444.2 13.9639C447.29 13.9639 449.255 16.0492 449.255 19.3619C449.255 22.6746 447.305 24.7451 444.2 24.7451C441.095 24.7451 439.131 22.6746 439.131 19.3619ZM447.02 19.3619C447.02 17.0844 445.971 15.7534 444.2 15.7534C442.43 15.7534 441.366 17.0992 441.366 19.3619C441.366 21.6246 442.415 22.9704 444.2 22.9704C445.985 22.9704 447.02 21.6394 447.02 19.3619Z" fill="#14142B"/>
<path d="M450.8 19.3618C450.8 16.1082 452.615 13.9934 455.3 13.9934C455.978 13.9595 456.651 14.115 457.242 14.442C457.835 14.7691 458.32 15.2544 458.645 15.842V10.1926H460.835V24.6119H458.704V22.8224C458.379 23.4257 457.886 23.9253 457.283 24.2631C456.68 24.6008 455.993 24.7628 455.3 24.7302C452.615 24.7302 450.8 22.6006 450.8 19.3618ZM453.035 19.3618C453.035 21.521 454.145 22.8963 455.855 22.8963C457.565 22.8963 458.66 21.4914 458.66 19.3618C458.66 17.2322 457.535 15.8272 455.855 15.8272C454.175 15.8272 453.035 17.2174 453.035 19.3618Z" fill="#14142B"/>
<path d="M470.164 17.7218C470.068 17.1456 469.755 16.6263 469.288 16.2672C468.821 15.9082 468.235 15.7358 467.645 15.7844C465.964 15.7844 464.839 17.1746 464.839 19.3634C464.839 21.5521 465.964 22.9423 467.659 22.9423C468.24 22.9993 468.821 22.8373 469.286 22.4888C469.751 22.1404 470.065 21.6313 470.164 21.0641H472.264C472.132 22.1502 471.575 23.1426 470.712 23.8304C469.849 24.5181 468.749 24.8468 467.645 24.7465C464.644 24.7465 462.619 22.6909 462.619 19.3634C462.619 16.0359 464.599 13.9654 467.629 13.9654C468.743 13.8741 469.85 14.2157 470.714 14.9174C471.577 15.6191 472.128 16.6254 472.248 17.7218H470.164Z" fill="#14142B"/>
<path d="M473.614 21.6258C473.614 19.7919 475.039 18.668 477.573 18.5349L480.498 18.3722V17.5145C480.498 16.3461 479.718 15.6806 478.384 15.6806C477.892 15.6176 477.394 15.7329 476.983 16.0051C476.572 16.2772 476.275 16.6875 476.149 17.1595H474.094C474.094 15.2665 475.954 13.9059 478.443 13.9059C480.934 13.9059 482.673 15.2813 482.673 17.3518V24.6131H480.513V22.8828C480.175 23.4694 479.684 23.9558 479.091 24.2914C478.496 24.6269 477.823 24.7993 477.138 24.7906C476.692 24.8318 476.241 24.7805 475.816 24.6402C475.39 24.4999 474.999 24.2736 474.668 23.9757C474.336 23.6778 474.07 23.315 473.889 22.9103C473.708 22.5057 473.614 22.0682 473.614 21.6258ZM480.498 20.6793V19.8659L477.873 20.0286C476.554 20.1025 475.819 20.6645 475.819 21.5075C475.819 22.3504 476.583 22.9864 477.768 22.9864C478.102 23.0127 478.438 22.9738 478.757 22.8721C479.076 22.7704 479.371 22.6078 479.626 22.3935C479.881 22.1793 480.09 21.9176 480.243 21.6235C480.395 21.3293 480.487 21.0085 480.513 20.6793H480.498Z" fill="#14142B"/>
<path d="M488.778 13.9781C491.148 13.9781 492.843 15.2648 492.887 17.1282H490.833C490.742 16.1965 489.948 15.6493 488.717 15.6493C487.488 15.6493 486.753 16.1817 486.753 16.9951C486.753 17.8085 487.278 18.0451 488.373 18.3261L490.172 18.7254C492.318 19.243 493.173 20.0268 493.173 21.5649C493.173 23.4579 491.358 24.7593 488.672 24.7593C485.988 24.7593 484.473 23.4874 484.308 21.5649H486.513C486.677 22.5853 487.488 23.1177 488.823 23.1177C490.157 23.1177 490.953 22.5853 490.953 21.7571C490.953 20.929 490.547 20.7515 489.452 20.4705L487.548 20.012C485.628 19.5536 484.652 18.5331 484.652 17.1282C484.608 15.25 486.302 13.9781 488.778 13.9781Z" fill="#14142B"/>
<path d="M497.898 11.5978V14.0824H499.923V15.7979H497.898V21.5952C497.898 22.4973 498.302 22.9114 499.188 22.9114H499.908V24.6121C499.507 24.6813 499.1 24.711 498.692 24.7009C496.533 24.7009 495.693 23.9023 495.693 21.8614V15.8127H494.193V14.0972H495.693V11.5978H497.898Z" fill="#14142B"/>
<path d="M505.802 13.9781C508.173 13.9781 509.867 15.2648 509.912 17.1282H507.857C507.767 16.1965 506.972 15.6493 505.742 15.6493C504.512 15.6493 503.777 16.1817 503.777 16.9951C503.777 17.8085 504.303 18.0451 505.398 18.3261L507.197 18.7254C509.342 19.243 510.197 20.0268 510.197 21.5649C510.197 23.4579 508.382 24.7593 505.773 24.7593C503.163 24.7593 501.513 23.4283 501.363 21.5501H503.522C503.687 22.5705 504.498 23.1029 505.832 23.1029C507.167 23.1029 507.962 22.5705 507.962 21.7423C507.962 20.9142 507.557 20.7367 506.462 20.4557L504.512 19.9973C502.592 19.5388 501.617 18.5184 501.617 17.1134C501.632 15.25 503.327 13.9781 505.802 13.9781Z" fill="#14142B"/>
</g>
<path d="M1.72159 27H4.88352V21.1023H8.22443C12.2557 21.1023 14.4205 18.6818 14.4205 15.3239C14.4205 11.9915 12.2812 9.54545 8.26705 9.54545H1.72159V27ZM4.88352 18.5028V12.1875H7.78125C10.1506 12.1875 11.1989 13.4659 11.1989 15.3239C11.1989 17.1818 10.1506 18.5028 7.7983 18.5028H4.88352ZM21.5533 27.2557C25.3885 27.2557 27.826 24.554 27.826 20.5057C27.826 16.4489 25.3885 13.7386 21.5533 13.7386C17.718 13.7386 15.2805 16.4489 15.2805 20.5057C15.2805 24.554 17.718 27.2557 21.5533 27.2557ZM21.5703 24.7841C19.4482 24.7841 18.4084 22.892 18.4084 20.4972C18.4084 18.1023 19.4482 16.1847 21.5703 16.1847C23.6584 16.1847 24.6982 18.1023 24.6982 20.4972C24.6982 22.892 23.6584 24.7841 21.5703 24.7841ZM34.3026 27.2301C36.5526 27.2301 37.5668 25.892 38.0526 24.9375H38.2401V27H41.2741V9.54545H38.1804V16.0739H38.0526C37.5838 15.1278 36.6207 13.7386 34.3111 13.7386C31.2855 13.7386 28.9077 16.108 28.9077 20.4716C28.9077 24.7841 31.2173 27.2301 34.3026 27.2301ZM35.1634 24.6989C33.1264 24.6989 32.0526 22.9091 32.0526 20.4545C32.0526 18.017 33.1094 16.2699 35.1634 16.2699C37.1491 16.2699 38.2401 17.9148 38.2401 20.4545C38.2401 22.9943 37.1321 24.6989 35.1634 24.6989ZM49.272 27.2557C52.5618 27.2557 54.6584 25.304 54.88 22.5256H51.9311C51.6669 23.9318 50.6527 24.7415 49.2976 24.7415C47.3714 24.7415 46.1271 23.1307 46.1271 20.4545C46.1271 17.8125 47.397 16.2273 49.2976 16.2273C50.7805 16.2273 51.6925 17.1818 51.9311 18.4432H54.88C54.6669 15.6051 52.451 13.7386 49.255 13.7386C45.4197 13.7386 42.9993 16.5085 42.9993 20.5057C42.9993 24.4688 45.3601 27.2557 49.272 27.2557ZM60.1804 27.2642C62.2344 27.2642 63.4616 26.3011 64.0241 25.2017H64.1264V27H67.0923V18.2386C67.0923 14.7784 64.2713 13.7386 61.7741 13.7386C59.0213 13.7386 56.9077 14.9659 56.2259 17.3523L59.1065 17.7614C59.4134 16.8665 60.2827 16.0994 61.7912 16.0994C63.223 16.0994 64.0071 16.8324 64.0071 18.1193V18.1705C64.0071 19.0568 63.0781 19.0994 60.7685 19.3466C58.2287 19.6193 55.7997 20.3778 55.7997 23.3267C55.7997 25.9006 57.6832 27.2642 60.1804 27.2642ZM60.9815 24.9972C59.6946 24.9972 58.7741 24.4091 58.7741 23.2756C58.7741 22.0909 59.8054 21.5966 61.1861 21.4006C61.9957 21.2898 63.6151 21.0852 64.0156 20.7614V22.304C64.0156 23.7614 62.8395 24.9972 60.9815 24.9972ZM79.5412 17.3693C79.1151 15.1534 77.3423 13.7386 74.2741 13.7386C71.1207 13.7386 68.973 15.2898 68.9815 17.7102C68.973 19.6193 70.1491 20.8807 72.6634 21.4006L74.8963 21.8693C76.098 22.1335 76.6605 22.6193 76.6605 23.3608C76.6605 24.2557 75.6889 24.929 74.223 24.929C72.8082 24.929 71.8878 24.3153 71.6236 23.1392L68.6151 23.429C68.9986 25.8324 71.0185 27.2557 74.2315 27.2557C77.5043 27.2557 79.8139 25.5597 79.8224 23.0795C79.8139 21.2131 78.6122 20.071 76.1406 19.5341L73.9077 19.0568C72.5781 18.7585 72.0497 18.2983 72.0582 17.5398C72.0497 16.6534 73.0298 16.0398 74.3168 16.0398C75.7401 16.0398 76.4901 16.8153 76.7287 17.6761L79.5412 17.3693ZM87.9034 13.9091H85.321V10.7727H82.2358V13.9091H80.3778V16.2955H82.2358V23.5739C82.2188 26.0369 84.0085 27.2472 86.3267 27.179C87.2045 27.1534 87.8097 26.983 88.142 26.8722L87.6222 24.4602C87.4517 24.5028 87.1023 24.5795 86.7188 24.5795C85.9432 24.5795 85.321 24.3068 85.321 23.0625V16.2955H87.9034V13.9091ZM96.8146 27L98.255 22.696H104.817L106.266 27H109.641L103.488 9.54545H99.5845L93.4396 27H96.8146ZM99.1072 20.1562L101.468 13.125H101.604L103.965 20.1562H99.1072ZM120.857 13.9091H117.575L114.558 23.6335H114.422L111.413 13.9091H108.124L112.786 27H116.195L120.857 13.9091ZM125.384 27.2642C127.438 27.2642 128.665 26.3011 129.227 25.2017H129.33V27H132.295V18.2386C132.295 14.7784 129.474 13.7386 126.977 13.7386C124.224 13.7386 122.111 14.9659 121.429 17.3523L124.31 17.7614C124.616 16.8665 125.486 16.0994 126.994 16.0994C128.426 16.0994 129.21 16.8324 129.21 18.1193V18.1705C129.21 19.0568 128.281 19.0994 125.972 19.3466C123.432 19.6193 121.003 20.3778 121.003 23.3267C121.003 25.9006 122.886 27.2642 125.384 27.2642ZM126.185 24.9972C124.898 24.9972 123.977 24.4091 123.977 23.2756C123.977 22.0909 125.009 21.5966 126.389 21.4006C127.199 21.2898 128.818 21.0852 129.219 20.7614V22.304C129.219 23.7614 128.043 24.9972 126.185 24.9972ZM134.398 27H137.483V13.9091H134.398V27ZM135.949 12.0511C136.929 12.0511 137.73 11.3011 137.73 10.3807C137.73 9.4517 136.929 8.7017 135.949 8.7017C134.96 8.7017 134.159 9.4517 134.159 10.3807C134.159 11.3011 134.96 12.0511 135.949 12.0511ZM142.741 9.54545H139.656V27H142.741V9.54545ZM148.68 27.2642C150.734 27.2642 151.962 26.3011 152.524 25.2017H152.626V27H155.592V18.2386C155.592 14.7784 152.771 13.7386 150.274 13.7386C147.521 13.7386 145.408 14.9659 144.726 17.3523L147.607 17.7614C147.913 16.8665 148.783 16.0994 150.291 16.0994C151.723 16.0994 152.507 16.8324 152.507 18.1193V18.1705C152.507 19.0568 151.578 19.0994 149.268 19.3466C146.729 19.6193 144.3 20.3778 144.3 23.3267C144.3 25.9006 146.183 27.2642 148.68 27.2642ZM149.482 24.9972C148.195 24.9972 147.274 24.4091 147.274 23.2756C147.274 22.0909 148.305 21.5966 149.686 21.4006C150.496 21.2898 152.115 21.0852 152.516 20.7614V22.304C152.516 23.7614 151.339 24.9972 149.482 24.9972ZM157.831 27H160.865V24.9375H161.044C161.53 25.892 162.544 27.2301 164.794 27.2301C167.879 27.2301 170.189 24.7841 170.189 20.4716C170.189 16.108 167.811 13.7386 164.786 13.7386C162.476 13.7386 161.513 15.1278 161.044 16.0739H160.916V9.54545H157.831V27ZM160.857 20.4545C160.857 17.9148 161.947 16.2699 163.933 16.2699C165.987 16.2699 167.044 18.017 167.044 20.4545C167.044 22.9091 165.97 24.6989 163.933 24.6989C161.964 24.6989 160.857 22.9943 160.857 20.4545ZM174.897 9.54545H171.812V27H174.897V9.54545ZM182.865 27.2557C185.916 27.2557 188.013 25.7642 188.558 23.4886L185.678 23.1648C185.26 24.2727 184.237 24.8523 182.908 24.8523C180.913 24.8523 179.592 23.5398 179.567 21.2983H188.686V20.3523C188.686 15.7585 185.925 13.7386 182.703 13.7386C178.953 13.7386 176.507 16.4915 176.507 20.5312C176.507 24.6392 178.919 27.2557 182.865 27.2557ZM179.575 19.2188C179.669 17.5483 180.905 16.142 182.746 16.142C184.518 16.142 185.712 17.4375 185.729 19.2188H179.575ZM210.982 18.2727C210.982 12.6307 207.539 9.30682 202.962 9.30682C198.377 9.30682 194.942 12.6307 194.942 18.2727C194.942 23.9062 198.377 27.2386 202.962 27.2386C207.539 27.2386 210.982 23.9148 210.982 18.2727ZM207.803 18.2727C207.803 22.2443 205.809 24.4006 202.962 24.4006C200.124 24.4006 198.121 22.2443 198.121 18.2727C198.121 14.3011 200.124 12.1449 202.962 12.1449C205.809 12.1449 207.803 14.3011 207.803 18.2727ZM215.92 19.3295C215.92 17.4375 217.062 16.3466 218.69 16.3466C220.284 16.3466 221.239 17.3949 221.239 19.142V27H224.324V18.6648C224.332 15.5284 222.543 13.7386 219.841 13.7386C217.881 13.7386 216.534 14.6761 215.938 16.1335H215.784V13.9091H212.835V27H215.92V19.3295Z" fill="#14142B"/>
<defs>
<linearGradient id="paint0_linear_736_1396" x1="616.532" y1="1.67603" x2="616.532" y2="36.6149" gradientUnits="userSpaceOnUse">
<stop stop-color="#FF7602"/>
<stop offset="1" stop-color="#FF3502"/>
</linearGradient>
<linearGradient id="paint1_linear_736_1396" x1="344.051" y1="1.33219" x2="344.051" y2="36.8848" gradientUnits="userSpaceOnUse">
<stop stop-color="#F452FF"/>
<stop offset="1" stop-color="#832BC1"/>
</linearGradient>
<clipPath id="clip0_736_1396">
<rect width="131" height="36" fill="white" transform="translate(1149)"/>
</clipPath>
<clipPath id="clip1_736_1396">
<rect width="203" height="37" fill="white" transform="translate(859)"/>
</clipPath>
<clipPath id="clip2_736_1396">
<rect width="174" height="36" fill="white" transform="translate(598 1)"/>
</clipPath>
<clipPath id="clip3_736_1396">
<rect width="185" height="36" fill="white" transform="translate(326 1)"/>
</clipPath>
</defs>
</svg>
